<svg
  version="1.1"
  id="LoadingIcon"
  x="0px"
  y="0px"
  viewBox="0 0 100 100"
  style="transform-origin: 50px 50px 0px;"
  xml:space="preserve"
>
  <g style="transform-origin: 50px 50px 0px;">
    <g style="transform-origin: 50px 50px 0px; transform: scale(0.6);">
      <g style="transform-origin: 50px 50px 0px; animation-duration: 1s; animation-delay: -1s; animation-direction: normal;" class=""><
        g>
          <g style="transform-origin: 50px 50px 0px;">
            <g>
              <g class="ld ld-bounce-px" style="transform-origin: 50px 50px 0px; animation-duration: 1s; animation-delay: -0.967742s; animation-direction: normal;">
                <path class="st98" d="M50,10c-22.1,0-40,17.9-40,40c0,22.1,17.9,40,40,40s40-17.9,40-40C90,27.9,72.1,10,50,10z M50,67.5 c-9.7,0-17.5-7.8-17.5-17.5S40.3,32.5,50,32.5S67.5,40.3,67.5,50S59.7,67.5,50,67.5z" fill="rgb(247, 178, 106)" stroke="rgb(51, 51, 51)" style="fill: rgb(247, 178, 106); stroke: rgb(51, 51, 51);"></path>
              </g>
              <g class="ld ld-bounce-px" style="transform-origin: 50px 50px 0px; animation-duration: 1s; animation-delay: -0.935484s; animation-direction: normal;">
                <path class="st99" d="M50,10c-22.1,0-40,17.9-40,40c0,9.2,3.1,17.7,8.3,24.4c1.7-0.9,2.9-2.6,2.9-4.6v-0.3c0-2.9,2.4-5.2,5.4-5.2h1 c3,0,5.4,2.3,5.4,5.2v5c0,2.9,2.4,5.2,5.4,5.2h1c3,0,5.4-2.3,5.4-5.2s2.4-5.2,5.4-5.2h1c3,0,5.4,2.3,5.4,5.2v1.8 c0,2.9,2.4,5.2,5.4,5.2h1c3,0,5.4-2.3,5.4-5.2V63c0-2.9,2.4-5.2,5.4-5.2h1c3,0,5.4,2.3,5.4,5.2v2.4c0,2.4,1.7,4.4,4,5 c3.6-6,5.6-13,5.6-20.4C90,27.9,72.1,10,50,10z M50,67.5c-9.7,0-17.5-7.8-17.5-17.5S40.3,32.5,50,32.5S67.5,40.3,67.5,50 S59.7,67.5,50,67.5z" stroke="rgb(51, 51, 51)" fill="rgb(225, 92, 100)" style="stroke: rgb(51, 51, 51); fill: rgb(225, 92, 100);"></path>
              </g>
            </g>
          </g>

          <g class="ld ld-bounce-px" style="transform-origin: 50px 50px 0px; animation-duration: 1s; animation-delay: -0.903226s; animation-direction: normal;">
            <path class="st96" d="M37.9,31.5c0.6-1.8,1.6-3.1,3.4-3.2" stroke="rgb(245, 225, 105)" style="stroke: rgb(245, 225, 105);"></path></g><g class="ld ld-bounce-px" style="transform-origin: 50px 50px 0px; animation-duration: 1s; animation-delay: -0.870968s; animation-direction: normal;"><path class="st96" d="M72.8,42.4c1.2-1.5,2.5-2.5,4.3-2" stroke="rgb(245, 225, 105)" style="stroke: rgb(245, 225, 105);"></path>
          </g>
          <g class="ld ld-bounce-px" style="transform-origin: 50px 50px 0px; animation-duration: 1s; animation-delay: -0.83871s; animation-direction: normal;">
            <path class="st96" d="M28.3,19.1c1.7,0.8,2.9,1.9,2.9,3.7" stroke="rgb(245, 225, 105)" style="stroke: rgb(245, 225, 105);"></path>
          </g>
          <g class="ld ld-bounce-px" style="transform-origin: 50px 50px 0px; animation-duration: 1s; animation-delay: -0.806452s; animation-direction: normal;">
            <path class="st96" d="M71.3,22.9c-1.1,1.5-2.4,2.5-4.2,2.2" stroke="rgb(245, 225, 105)" style="stroke: rgb(245, 225, 105);"></path>
          </g>
          <g class="ld ld-bounce-px" style="transform-origin: 50px 50px 0px; animation-duration: 1s; animation-delay: -0.774194s; animation-direction: normal;">
            <path class="st96" d="M65.7,29.2c0.5,1.8,0.4,3.5-1,4.6" stroke="rgb(245, 225, 105)" style="stroke: rgb(245, 225, 105);"></path>
          </g>
          <g class="ld ld-bounce-px" style="transform-origin: 50px 50px 0px; animation-duration: 1s; animation-delay: -0.741935s; animation-direction: normal;">
            <path class="st96" d="M19.9,54.5c-1.7,0.8-3.3,1.2-4.7,0" stroke="rgb(245, 225, 105)" style="stroke: rgb(245, 225, 105);"></path>
          </g>
          <g class="ld ld-bounce-px" style="transform-origin: 50px 50px 0px; animation-duration: 1s; animation-delay: -0.709677s; animation-direction: normal;">
            <path class="st100" d="M71.8,30.9c1.9,0.2,3.4,0.7,4,2.4" stroke="#acbd81" style="stroke: rgb(172, 189, 129);"></path>
          </g>
          <g class="ld ld-bounce-px" style="transform-origin: 50px 50px 0px; animation-duration: 1s; animation-delay: -0.677419s; animation-direction: normal;">
            <path class="st100" d="M21.2,48.4c0.9-1.6,2.1-2.8,3.9-2.6" stroke="#acbd81" style="stroke: rgb(172, 189, 129);"></path>
          </g>
          <g class="ld ld-bounce-px" style="transform-origin: 50px 50px 0px; animation-duration: 1s; animation-delay: -0.645161s; animation-direction: normal;">
            <path class="st100" d="M75,53.2c-1.9-0.1-3.4-0.6-4.1-2.3" stroke="#acbd81" style="stroke: rgb(172, 189, 129);"></path>
          </g>
          <g class="ld ld-bounce-px" style="transform-origin: 50px 50px 0px; animation-duration: 1s; animation-delay: -0.612903s; animation-direction: normal;">
            <path class="st100" d="M57.7,27.2c-1.6,1-3.1,1.6-4.7,0.6" stroke="#acbd81" style="stroke: rgb(172, 189, 129);"></path>
          </g>
          <g class="ld ld-bounce-px" style="transform-origin: 50px 50px 0px; animation-duration: 1s; animation-delay: -0.580645s; animation-direction: normal;">
            <path class="st100" d="M41,72.8c-1.6-1-2.7-2.2-2.5-4" stroke="#acbd81" style="stroke: rgb(172, 189, 129);"></path>
          </g>
          <g class="ld ld-bounce-px" style="transform-origin: 50px 50px 0px; animation-duration: 1s; animation-delay: -0.548387s; animation-direction: normal;">
            <path class="st100" d="M42.6,19.1c-1.8-0.4-3.3-1.1-3.7-2.9" stroke="#acbd81" style="stroke: rgb(172, 189, 129);"></path>
          </g>
          <g class="ld ld-bounce-px" style="transform-origin: 50px 50px 0px; animation-duration: 1s; animation-delay: -0.516129s; animation-direction: normal;">
            <path class="st101" d="M30.6,59c-1.8,0.6-3.4,0.6-4.7-0.7" stroke="#a0c8d7" style="stroke: rgb(160, 200, 215);"></path>
          </g>
          <g class="ld ld-bounce-px" style="transform-origin: 50px 50px 0px; animation-duration: 1s; animation-delay: -0.483871s; animation-direction: normal;">
            <path class="st101" d="M49.1,18.7c1.8,0.5,3.2,1.4,3.5,3.2" stroke="#a0c8d7" style="stroke: rgb(160, 200, 215);"></path>
          </g>
          <g class="ld ld-bounce-px" style="transform-origin: 50px 50px 0px; animation-duration: 1s; animation-delay: -0.451613s; animation-direction: normal;">
            <path class="st101" d="M81.7,44c1.5,1.2,2.4,2.5,1.9,4.3" stroke="#a0c8d7" style="stroke: rgb(160, 200, 215);"></path>
          </g>
          <g class="ld ld-bounce-px" style="transform-origin: 50px 50px 0px; animation-duration: 1s; animation-delay: -0.419355s; animation-direction: normal;">
            <path class="st101" d="M63.9,16.7c-1.8,0.6-3.4,0.8-4.7-0.5" stroke="#a0c8d7" style="stroke: rgb(160, 200, 215);"></path>
          </g>
          <g class="ld ld-bounce-px" style="transform-origin: 50px 50px 0px; animation-duration: 1s; animation-delay: -0.387097s; animation-direction: normal;">
            <path class="st101" d="M27.5,35.9C25.6,36,24,35.7,23.1,34" stroke="#a0c8d7" style="stroke: rgb(160, 200, 215);"></path>
          </g>
          <g class="ld ld-bounce-px" style="transform-origin: 50px 50px 0px; animation-duration: 1s; animation-delay: -0.354839s; animation-direction: normal;">
            <path class="st101" d="M59.4,70.9c1.9-0.1,3.5,0.2,4.3,1.8" stroke="#a0c8d7" style="stroke: rgb(160, 200, 215);"></path>
          </g>
        </g>
      </g>
    </g>
  </g>
</svg>
