<svg version="1.1" id="Layer_1" x="0px" y="0px"
	 viewBox="0 0 136.3 136.7" style="enable-background:new 0 0 136.3 136.7;">
<style type="text/css">
	.st0{fill:#F1B434;stroke:#000000;stroke-width:6;stroke-miterlimit:10;}
</style>
<circle class="st0" cx="68.1" cy="68.6" r="63.8"/>
<path d="M104.8,52.3c-1-0.8-1.9-1.3-2.7-1.6c-2.2-3.8-10.9-16.3-30.3-17.3v-7.2c0-1.2-0.9-2.3-2.2-2.4C69,23.7,54,22,41.9,32.7
	C32.3,41.2,27.4,55,27.4,73.6c0,27.7,21.6,42.6,41.9,42.6c1.4,0,2.5-1.1,2.5-2.5V93.6c0-0.8-0.4-1.5-1-2s-1.5-0.6-2.2-0.4
	c-6.8,2.2-23.7,5.8-30.8,0.2c1.4-3,5.1-8.7,14.1-12.4v9.4c0,1.4,1.1,2.5,2.5,2.5c5.7,0,16.3-3.3,17.3-15.4c0.2,0,0.4,0,0.6,0h28.3
	c0.7,0,1.3-0.3,1.7-0.7c0.5-0.5,0.7-1.1,0.7-1.8c0-0.2-0.1-1.9-0.8-4.3c2.2-1.8,5.9-5.4,6.1-9.6C108.3,57.3,107.8,54.7,104.8,52.3z
	 M66.8,96.9v14.3c-11.3-0.6-19.9-5.7-25.8-12.8C49.8,100.7,61.3,98.3,66.8,96.9z M45.1,36.4c7.9-7,17.5-7.9,21.7-7.9c0,0,0,0,0.1,0
	v4.9C54.8,34,44.2,39.3,37.1,47.6C39.1,43.1,41.8,39.4,45.1,36.4z M56.6,85.7v-8.4c2.9-0.8,6.1-1.4,9.9-1.7
	C65.6,83,60,85.1,56.6,85.7z M72.1,70.6c-1.1,0-2.1,0-3.1,0.1c-1.8-0.1-12.3-1.4-12.3-12.6C56.7,46.2,68.9,45,69.4,45
	c1.3-0.1,2.4-1.3,2.3-2.6c-0.1-1.4-1.3-2.4-2.6-2.3c-6,0.5-17.2,4.8-17.2,18c0,6.8,3,11.1,6.6,13.8c-14,2.9-20.7,9.9-23.8,14.9
	c-1.6-4.3-2.4-8.8-2.4-13.2c0-19.8,16.3-35.4,37.1-35.4c16,0,24.1,8.6,27.3,13.1c-1.8,1.1-3.3,2.8-4.6,4.4c-2.6,3.1-5.3,6.2-9.8,6.2
	c-9.2,0-10.6-11.1-10.6-11.6C71.6,49,70.3,48,69,48.1c-1.3,0.1-2.3,1.4-2.2,2.7c0.6,5.5,4.6,16,15.5,16c4.2,0,7.3-1.8,9.7-3.9
	c3.6,2.3,5,5.5,5.6,7.7C97.6,70.6,72.1,70.6,72.1,70.6z M100,64.1c-1.1-1.7-2.6-3.4-4.6-4.8c0.1-0.1,0.3-0.3,0.4-0.4
	c3.6-4.2,4.1-4.2,6-2.7c1.5,1.2,1.6,2.2,1.6,2.8C103.3,60.7,101.6,62.7,100,64.1z"/>
<circle cx="78.7" cy="49.3" r="3.5"/>
</svg>
